# xmcd
#
# Track frame offsets:
#	150
#	12097
#	26945
#	41404
#	53782
#	67020
#	79959
#	92902
#	105319
#	122366
#	138498
#	153061
#	165268
#	177747
#	192836
#	206403
#	217091
#	230561
#	245567
#	261311
#
# Disc length: 3612 seconds
#
# Revision: 1097956613
# Processed by: cddbd v1.5.2PL0 Copyright (c) Steve Scherf et al.
# Submitted via: EZCDAudioConverter 8.3.2.1
#
DISCID=150e1a14
DTITLE=Nat King Cole - 20 Great Love Songs
DYEAR=1998
DGENRE=
TTITLE0=Unforgettable
TTITLE1=Pretend
TTITLE2=Tenderly
TTITLE3=I Could Have Danced All Night
TTITLE4=(I Love You) For Sentimental Reasons
TTITLE5=Mona Lisa
TTITLE6=A Blossom Fell
TTITLE7=These Foolish Things (Remind Me of You)
TTITLE8=More
TTITLE9=When I Fall in Love
TTITLE10=It's All in the Game
TTITLE11=But Beautiful
TTITLE12=Ain't Misbehavin'
TTITLE13=The Girl From Ipanema
TTITLE14=Impossible
TTITLE15=For All We Know
TTITLE16=Stardust
TTITLE17=Arriverderci Roma
TTITLE18=There Goes My Heart
TTITLE19=Smile
EXTD=
EXTT0=
EXTT1=
EXTT2=
EXTT3=
EXTT4=
EXTT5=
EXTT6=
EXTT7=
EXTT8=
EXTT9=
EXTT10=
EXTT11=
EXTT12=
EXTT13=
EXTT14=
EXTT15=
EXTT16=
EXTT17=
EXTT18=
EXTT19=
PLAYORDER=
